<svg xmlns="http://www.w3.org/2000/svg" version="1.1" viewBox="-5.0 -10.0 110.0 135.0">
 <path d="m23.742 50c0 28.039 11.535 50 26.258 50 14.727 0 26.258-21.965 26.258-50 0-28.039-11.535-50-26.258-50s-26.258 21.961-26.258 50zm3.0195 0c0-25.906 10.426-46.98 23.238-46.98s23.238 21.074 23.238 46.98-10.426 46.98-23.238 46.98-23.238-21.074-23.238-46.98z"/>
 <path d="m8.5742 22c-8.2422 12.199 3.4922 34.055 26.723 49.754 23.23 15.699 47.887 18.445 56.133 6.2422 8.2461-12.199-3.4922-34.059-26.723-49.754-23.234-15.695-47.887-18.438-56.133-6.2422zm28.414 47.254c-21.465-14.504-33.086-34.945-25.914-45.562 7.1758-10.613 30.477-7.4492 51.938 7.0547 21.461 14.508 33.086 34.949 25.914 45.562-7.1758 10.613-30.477 7.4492-51.938-7.0547z"/>
 <path d="m35.297 28.242c-23.23 15.699-34.969 37.555-26.723 49.754 2.4141 3.5703 6.4336 5.9883 11.625 6.9922 11.953 2.3125 29.008-2.7578 44.508-13.234 23.227-15.699 34.965-37.555 26.723-49.754-8.25-12.195-32.902-9.4531-56.133 6.2422zm53.629-4.5508c7.1719 10.617-4.4531 31.059-25.91 45.562-14.859 10.043-31.047 14.938-42.242 12.773-4.4492-0.85938-7.7109-2.7852-9.6953-5.7188-7.1758-10.613 4.4453-31.051 25.914-45.562 21.457-14.504 44.754-17.668 51.934-7.0547z"/>
 <path d="m35.203 50c0 8.1602 6.6367 14.797 14.797 14.797s14.797-6.6367 14.797-14.797-6.6367-14.793-14.797-14.793c-8.1602-0.003906-14.797 6.6328-14.797 14.793zm3.0195 0c0-6.4922 5.2852-11.777 11.777-11.777s11.777 5.2812 11.777 11.777c0 6.4922-5.2852 11.777-11.777 11.777s-11.777-5.2852-11.777-11.777z"/>
<text x="0.0" y="117.5" font-size="5.0" font-weight="bold" font-family="Arbeit Regular, Helvetica, Arial-Unicode, Arial, Sans-serif" fill="#000000">Created by Seong-Jin Kim</text><text x="0.0" y="122.5" font-size="5.0" font-weight="bold" font-family="Arbeit Regular, Helvetica, Arial-Unicode, Arial, Sans-serif" fill="#000000">from Noun Project</text></svg>