<svg xmlns="http://www.w3.org/2000/svg" xmlns:xlink="http://www.w3.org/1999/xlink" version="1.1" x="0px" y="0px" viewBox="0 0 100 125" enable-background="new 0 0 100 100" xml:space="preserve"><path d="M49.9995117,53.0478516l-0.7080078-0.4082031l-1.9321289-1.1162109v-3.0488281L50,46.9501953l0.4038086,0.2329102  l2.2368164,1.2924805l-0.0004883,3.0483398L49.9995117,53.0478516z M61.5722656,35.1660156  c-0.8164063,0-1.6113281,0.1171875-2.362793,0.3486328c-0.0234375,0.0068359-0.0473633,0.0009766-0.0712891,0.0068359  l-11.7807617,6.8022461l-0.0009766,3.8417969l7.4150391-4.2792969c0.3095703-0.1791992,0.6904297-0.1782227,1,0  l11.8769531,6.8569336c1.3232422-1.4853516,2.0742188-3.4208984,2.0742188-5.4204102  C69.7226563,38.8251953,66.0664063,35.1660156,61.5722656,35.1660156z M32.7978516,49.2070313l11.9257813,6.8857422  l3.2749023-1.8901367l-2.1391602-1.2348633c-0.003418-0.0019531-0.0058594-0.0053711-0.0092773-0.0073242l-5.2651367-3.0410156  c-0.3095703-0.1782227-0.5-0.5083008-0.5-0.8657227V35.3554688c-0.5395508-0.1123047-1.0898438-0.1894531-1.6572266-0.1894531  c-4.4941406,0-8.1503906,3.6591797-8.1503906,8.1567383C30.2773438,45.5375977,31.1972656,47.675293,32.7978516,49.2070313z   M67.2070313,50.7978516l-11.9355469-6.890625L52,45.7954102l2.140625,1.2358398  c0.003418,0.0019531,0.0058594,0.0048828,0.0087891,0.0068359l5.265625,3.0419922c0.3095703,0.1787109,0.5,0.5087891,0.5,0.8657227  v13.6987305c0.5395508,0.1123047,1.0898438,0.1894531,1.6572266,0.1894531c4.4941406,0,8.1503906-3.6591797,8.1503906-8.1567383  C69.7226563,54.4648438,68.8046875,52.3295898,67.2070313,50.7978516z M42.0849609,48.4765625l3.2700195,1.8886719  l0.0024414-8.6196289c0-0.3569336,0.1904297-0.6870117,0.5-0.8657227l11.8671875-6.8520508  C56.6220703,30.7275391,53.5512695,28.4829102,50,28.4829102c-3.7841797,0-7.0234375,2.5488281-7.9150391,6.2080078V48.4765625z   M38.4277344,64.8339844c0.7875977,0,1.5532227-0.1147461,2.28125-0.3300781l11.9306641-6.8881836l0.0004883-3.7817383  L50.5,55.0693359c-0.0009766,0.0004883-0.0024414,0.0009766-0.003418,0.0014648l-0.0019531,0.0009766  c-0.0014648,0.0009766-0.0029297,0.0014648-0.0043945,0.0024414l-5.2666016,3.0395508  c-0.1547852,0.0893555-0.3276367,0.1337891-0.5,0.1337891c-0.1728516,0-0.3452148-0.0444336-0.5-0.1337891l-11.8740234-6.8554688  c-1.3222656,1.4848633-2.0722656,3.4199219-2.0722656,5.4189453C30.2773438,61.1748047,33.9335938,64.8339844,38.4277344,64.8339844  z M57.9150391,51.5229492l-3.2744141-1.8916016v2.4702148c0,0.0009766-0.0004883,0.0019531-0.0004883,0.0029297  l-0.0004883,6.0888672c0,0.3574219-0.1904297,0.6875-0.5,0.8662109l-11.8833008,6.8603516  c1.0864258,3.3295898,4.1733398,5.597168,7.7436523,5.597168c3.7841797,0,7.0234375-2.5488281,7.9150391-6.2080078V51.5229492z"/><text x="0" y="115" fill="#000000" font-size="5px" font-weight="bold" font-family="'Helvetica Neue', Helvetica, Arial-Unicode, Arial, Sans-serif">Created by Fakhri Rossi</text><text x="0" y="120" fill="#000000" font-size="5px" font-weight="bold" font-family="'Helvetica Neue', Helvetica, Arial-Unicode, Arial, Sans-serif">from the Noun Project</text></svg>