<svg xmlns="http://www.w3.org/2000/svg" version="1.1" viewBox="-5.0 -10.0 110.0 135.0">
 <path d="m50 9c6.1016 0 11.121 6.3242 14.227 16.23 10.078-2.2461 18.035-1.0352 21.082 4.2734 3.043 5.3047 0.10547 12.836-6.8711 20.496 6.8711 7.5469 9.8281 14.973 7 20.258l-0.12891 0.23828c-3.0469 5.3086-11.004 6.5195-21.082 4.2734-3.0625 9.7617-7.9805 16.043-13.957 16.227l-0.26953 0.003906c-6.1016 0-11.121-6.3242-14.227-16.23-9.9297 2.2109-17.801 1.0664-20.945-4.043l-0.13672-0.23047c-3.043-5.3047-0.10547-12.836 6.8711-20.496-6.8711-7.5469-9.8281-14.973-7-20.258l0.12891-0.23828c3.0469-5.3086 11.004-6.5195 21.082-4.2734 3.0625-9.7617 7.9805-16.043 13.957-16.227zm0 60.887-0.45312 0.20703c-3.0586 1.3594-6.0508 2.4883-8.918 3.3789 2.4609 7.75 5.9844 12.527 9.3711 12.527s6.9102-4.7773 9.3711-12.527c-2.8672-0.88672-5.8594-2.0195-8.918-3.3789zm-24.898-16.316-0.082031 0.089844c-5.3711 5.9805-7.6836 11.398-5.9922 14.344 1.6953 2.9531 7.5586 3.6367 15.445 1.9141-0.67188-2.9453-1.1953-6.1211-1.5508-9.4688l-0.054687-0.51172-0.41016-0.29688c-2.6953-1.9805-5.1602-4.0195-7.3555-6.0703zm49.797 0-0.29688 0.27734c-2.1172 1.957-4.4844 3.8984-7.0586 5.793l-0.41016 0.29688-0.050781 0.51172c-0.35938 3.3477-0.88281 6.5234-1.5547 9.4688 7.8867 1.7227 13.75 1.0391 15.445-1.9141 1.6992-2.9609-0.64453-8.418-6.0742-14.434zm-14.219-22.195-0.23047 0.070312c-2.9453 0.92969-6.082 2.1406-9.3164 3.6445l-0.074218 0.035156-1.0547 0.49609-1.0586-0.49219c-3.3477-1.5625-6.5859-2.8086-9.625-3.7539-0.70703 3.125-1.2539 6.5781-1.582 10.277l-0.10547 1.1523-0.94141 0.66797c-3.0234 2.1406-5.7266 4.3438-8.0625 6.5273 2.3359 2.1836 5.0391 4.3867 8.0625 6.5312l0.94141 0.66406 0.10547 1.1523c0.32812 3.6992 0.875 7.1523 1.582 10.277 3.0391-0.94531 6.2773-2.1914 9.6211-3.7539l1.0586-0.49219 1.0547 0.49219c3.3477 1.5625 6.5859 2.8086 9.625 3.7539 0.70703-3.125 1.2539-6.5781 1.582-10.277l0.10547-1.1523 0.94141-0.66797c3.0234-2.1406 5.7266-4.3438 8.0664-6.5273-2.3398-2.1836-5.043-4.3867-8.0664-6.5312l-0.94141-0.66406-0.10547-1.1523c-0.32812-3.6992-0.875-7.1523-1.582-10.277zm-41.652 0.62109c-1.6992 2.9609 0.64453 8.418 6.0742 14.434 2.1953-2.0508 4.6602-4.0898 7.3555-6.0703l0.41016-0.29688 0.050781-0.51172c0.35938-3.3477 0.88281-6.5234 1.5547-9.4688-7.8867-1.7227-13.75-1.0391-15.445 1.9141zm46.668-1.9492-0.16797 0.035156c0.67188 2.9453 1.1953 6.1211 1.5547 9.4688l0.050781 0.51172 0.41016 0.29688c2.6953 1.9805 5.1602 4.0195 7.3555 6.0703 5.4297-6.0156 7.7734-11.473 6.0742-14.434-1.6836-2.9336-7.4766-3.6289-15.277-1.9492zm-15.695-16.047c-3.3867 0-6.9102 4.7773-9.3711 12.527 2.8672 0.88672 5.8594 2.0195 8.918 3.3789l0.45312 0.20312 0.03125-0.011719c3.207-1.4453 6.3398-2.6406 9.3398-3.5703-2.4609-7.75-5.9844-12.527-9.3711-12.527z"/>
<text x="0.0" y="117.5" font-size="5.0" font-weight="bold" font-family="Arbeit Regular, Helvetica, Arial-Unicode, Arial, Sans-serif" fill="#000000">Created by Slash</text><text x="0.0" y="122.5" font-size="5.0" font-weight="bold" font-family="Arbeit Regular, Helvetica, Arial-Unicode, Arial, Sans-serif" fill="#000000">from Noun Project</text></svg>